<?xml version="1.0" encoding="UTF-8"?>
<svg version="1.1" xmlns="http://www.w3.org/2000/svg" viewbox="0 0 512 512" width="512" height="512">
<path d="M0 0 C0.77283243 -0.00297112 1.54566485 -0.00594224 2.34191644 -0.0090034 C4.91011497 -0.01761736 7.47826649 -0.01919241 10.04647827 -0.02069092 C11.89684141 -0.02532429 13.7472036 -0.03034964 15.5975647 -0.03573608 C20.61026746 -0.04881249 25.62295686 -0.05529578 30.635674 -0.05974674 C33.77295007 -0.06268531 36.91022255 -0.06679158 40.0474968 -0.07125092 C49.87939518 -0.08491362 59.71128529 -0.09458615 69.54319251 -0.09845281 C80.86274632 -0.10292998 92.18217918 -0.12046726 103.50169623 -0.1494534 C112.27143301 -0.17112472 121.04113589 -0.18116 129.81089914 -0.18249393 C135.03935112 -0.18353809 140.26768921 -0.18936284 145.49611282 -0.20731354 C150.41933601 -0.22388863 155.34236083 -0.22590427 160.26560211 -0.21717453 C162.06257283 -0.21640917 163.85955464 -0.22067994 165.65649796 -0.23063278 C185.17571384 -0.33231983 201.32502257 2.67894953 216.91903687 15.14044189 C217.71567749 15.77079346 218.51231812 16.40114502 219.33309937 17.05059814 C232.38472256 27.97180175 241.80971131 44.16630734 243.91903687 61.14044189 C244.5015082 70.00512319 244.34000575 78.91126375 244.3230896 87.7901001 C244.32715834 90.49509586 244.33566457 93.20007393 244.34388733 95.90505981 C244.36100703 102.46663699 244.36192954 109.02811812 244.35667443 115.58971182 C244.35261835 120.92823292 244.35409327 126.26672582 244.35942268 131.60524559 C244.36017111 132.36763972 244.36091953 133.13003385 244.36169063 133.91553083 C244.36322225 135.46478819 244.3647606 137.01404555 244.3663056 138.5633029 C244.38000618 153.06379538 244.37461039 167.56423378 244.36312038 182.064725 C244.35319272 195.29982276 244.36612494 208.53478061 244.39005458 221.76985679 C244.4144997 235.39378962 244.42404005 249.01765745 244.41740185 262.64161175 C244.41392135 270.27672882 244.41606385 277.91173841 244.43365288 285.54683876 C244.44844289 292.04699586 244.44892237 298.54696982 244.43158197 305.04712359 C244.42312443 308.35664585 244.4229974 311.66557636 244.43623352 314.97512245 C244.51976074 337.59848012 242.89227851 358.78136518 226.21981812 375.90216064 C225.4605603 376.64079346 224.70130249 377.37942627 223.91903687 378.14044189 C222.8884314 379.20198486 222.8884314 379.20198486 221.83700562 380.28497314 C208.94438902 392.79487756 191.385817 397.3024073 173.83807373 397.28088379 C173.0652413 397.28385491 172.29240888 397.28682603 171.49615729 397.28988719 C168.92795876 397.29850115 166.35980724 397.3000762 163.79159546 397.30157471 C161.94123232 397.30620808 160.09087013 397.31123343 158.24050903 397.31661987 C153.22780627 397.32969628 148.21511687 397.33617957 143.20239973 397.34063053 C140.06512366 397.3435691 136.92785118 397.34767537 133.79057693 397.3521347 C123.95867855 397.36579741 114.12678844 397.37546993 104.29488122 397.3793366 C92.97532741 397.38381377 81.65589456 397.40135105 70.3363775 397.43033719 C61.56664072 397.45200851 52.79693784 397.46204379 44.02717459 397.46337771 C38.79872261 397.46442188 33.57038452 397.47024663 28.34196091 397.48819733 C23.41873772 397.50477242 18.49571291 397.50678806 13.57247162 397.49805832 C11.7755009 397.49729296 9.97851909 397.50156373 8.18157578 397.51151657 C-14.8047594 397.63126588 -32.46891688 392.56778779 -49.63174438 376.64434814 C-63.59399942 362.37033621 -70.58340362 345.06609128 -70.46864319 325.21313477 C-70.47402873 324.07485961 -70.47941426 322.93658446 -70.484963 321.76381612 C-70.49917112 317.98266974 -70.49215632 314.20187699 -70.48501587 310.42071533 C-70.48908299 307.69616295 -70.4975893 304.97162815 -70.5058136 302.24708557 C-70.52294478 295.63390247 -70.52385331 289.02081461 -70.51860069 282.4076151 C-70.5145464 277.02711744 -70.51601745 271.64664776 -70.52134895 266.26615143 C-70.52209738 265.49807109 -70.5228458 264.72999075 -70.5236169 263.93863524 C-70.52514851 262.37786235 -70.52668686 260.81708946 -70.52823187 259.25631657 C-70.54193687 244.64328191 -70.53653377 230.03030089 -70.52504665 215.41726747 C-70.51512085 202.07864213 -70.52804719 188.74015563 -70.55198085 175.40155169 C-70.57642547 161.67368948 -70.5859663 147.9458918 -70.57932812 134.21800828 C-70.57584721 126.52363183 -70.57799273 118.82936202 -70.59557915 111.13500214 C-70.61036862 104.58358435 -70.61084945 98.03234829 -70.59350824 91.48093382 C-70.58504983 88.14509151 -70.58492522 84.80983638 -70.59815979 81.47397041 C-70.68591773 57.51293708 -68.28358859 37.37710495 -51.08096313 19.14044189 C-37.0938975 5.7148117 -19.0918195 -0.02341743 0 0 Z " fill="currentColor" transform="translate(115.08096313476563,11.85955810546875)"/>
<path d="M0 0 C2.69327023 0.1250312 5.38558379 0.25916813 8.078125 0.3984375 C9.20951904 0.44955688 9.20951904 0.44955688 10.36376953 0.50170898 C29.30660114 1.51540646 44.33130727 11.42333342 56.8359375 24.9921875 C71.45408741 43.01350459 71.45644189 63.2871233 71.40683305 85.33055592 C71.40206246 88.90804108 71.41464526 92.48547448 71.42485046 96.0629425 C71.44196819 103.05418126 71.44289317 110.04532987 71.43763756 117.03658412 C71.43358151 122.72405101 71.43505637 128.41149143 71.44038582 134.09895706 C71.44113424 134.9111722 71.44188266 135.72338734 71.44265376 136.56021506 C71.44418538 138.21069689 71.44572373 139.86117871 71.44726873 141.51166053 C71.46096832 156.95831202 71.45557397 172.40491274 71.44408352 187.85156305 C71.43415353 201.95310845 71.44709228 216.05452259 71.47101771 230.15604775 C71.49545627 244.67046112 71.50500494 259.18481348 71.49836498 273.699247 C71.49488335 281.83401535 71.49703473 289.96868283 71.51461601 298.10343552 C71.52939765 305.02809908 71.5298961 311.95259073 71.5125451 318.87725113 C71.50408147 322.40340221 71.50177031 325.92924696 71.51719666 329.45538139 C71.5980252 352.80001573 70.16895841 374.18627829 53.18701172 391.94091797 C39.37251405 405.80248377 22.68989619 413.03022766 3.06905127 413.1430676 C2.36398774 413.14220112 1.65892421 413.14133463 0.93249512 413.14044189 C-0.22463682 413.14489858 -0.22463682 413.14489858 -1.40514517 413.1494453 C-3.96867576 413.15805921 -6.53215925 413.15963431 -9.09570312 413.16113281 C-10.94282123 413.16576627 -12.78993838 413.17079163 -14.63705444 413.17617798 C-19.64162729 413.18925542 -24.64618675 413.19573812 -29.650774 413.20018864 C-32.78404543 413.20312762 -35.91731327 413.20723402 -39.05058289 413.21169281 C-48.87287455 413.22535709 -58.69515793 413.2350283 -68.51745844 413.2388947 C-79.8200122 413.24336933 -91.12244466 413.26089412 -102.42496157 413.2898953 C-111.18453861 413.31158385 -119.9440817 413.32160284 -128.70368528 413.32293582 C-133.92437636 413.32397896 -139.14495326 413.3297811 -144.36561584 413.34775543 C-149.28392062 413.36436005 -154.20202689 413.36633215 -159.12034988 413.35761642 C-160.91325542 413.35685256 -162.70617218 413.36110146 -164.49905014 413.37107468 C-186.67305928 413.48706615 -206.81760481 409.66525348 -223.625 393.9375 C-231.59464621 385.49653062 -242 371.32137868 -242 359 C-241.07584762 358.99761165 -240.15169523 358.99522329 -239.19953823 358.99276257 C-216.66215889 358.93384043 -194.12488536 358.85787954 -171.58762264 358.76428509 C-160.68855192 358.71941278 -149.78951324 358.67997854 -138.89038086 358.65356445 C-129.38530123 358.63051483 -119.88032376 358.59703954 -110.37532526 358.55129844 C-105.34740462 358.52745983 -100.31958458 358.50866992 -95.29160881 358.50238609 C-90.54818096 358.49629262 -85.80501018 358.47614084 -81.06167793 358.44572449 C-79.33127256 358.43701203 -77.60083349 358.43320739 -75.8704071 358.43499184 C-62.48583312 358.44442682 -48.7951576 357.89891603 -36.75 351.375 C-36.08871094 351.02800049 -35.42742187 350.68100098 -34.74609375 350.32348633 C-19.83134791 342.21992843 -9.66433286 329.93890188 -3.92446518 314.0164566 C-0.03000368 300.76497291 -0.4161255 287.40096543 -0.45119452 273.69551015 C-0.45618998 270.01336599 -0.4379924 266.33132173 -0.42277527 262.6492157 C-0.3995822 256.28756817 -0.39070941 249.92603426 -0.39188385 243.56434631 C-0.39356064 234.36672264 -0.37314195 225.1692494 -0.34752855 215.97166604 C-0.30655218 201.04508287 -0.28316131 186.11852696 -0.27099609 171.19189453 C-0.25914875 156.70195907 -0.23891574 142.21207483 -0.20751953 127.72216797 C-0.20558343 126.82728588 -0.20364733 125.93240378 -0.20165256 125.01040405 C-0.19188723 120.52052845 -0.18195826 116.03065322 -0.17194796 111.54077816 C-0.08926485 74.36054259 -0.03519154 37.18030936 0 0 Z " fill="currentColor" transform="translate(396,87)"/>
</svg>
