<?xml version="1.0" encoding="UTF-8"?>
<svg version="1.1" xmlns="http://www.w3.org/2000/svg" viewbox="0 0 512 512" width="512" height="512">
<path d="M0 0 C1.87095684 -0.00543233 3.7419094 -0.01256117 5.612854 -0.02124023 C10.65423494 -0.03934449 15.69528535 -0.03245977 20.73667145 -0.01972389 C26.03653288 -0.00952891 31.33636781 -0.01900749 36.63623047 -0.02526855 C45.53292877 -0.03252615 54.42949384 -0.02300697 63.32617188 -0.00390625 C73.58163825 0.01785878 83.83678643 0.01080608 94.0922451 -0.01121187 C102.93006787 -0.02941983 111.76779539 -0.0318979 120.60563087 -0.0214572 C125.86976962 -0.01525185 131.13375928 -0.01430456 136.39788818 -0.02760315 C141.34918713 -0.0392399 146.30007966 -0.03099434 151.25133514 -0.00802612 C153.05797402 -0.00278054 154.86464768 -0.00418071 156.67127228 -0.01307678 C177.63707372 -0.10672115 195.6767974 5.37554318 211.0078125 20.51757812 C211.39932495 21.16580032 211.7908374 21.81402252 212.19421387 22.48188782 C214.14433095 25.67080618 215.6356288 28.09009786 219.3082428 29.23423767 C222.11318175 29.47320818 224.8230632 29.46889593 227.63671875 29.37695312 C228.66280746 29.3783429 229.68889618 29.37973267 230.74607849 29.38116455 C234.02228698 29.38085374 237.29470254 29.3278669 240.5703125 29.26757812 C273.85058996 28.86610334 273.85058996 28.86610334 285.01171875 38.55273438 C295.07164442 48.4551661 298.37610648 59.27076999 298.54312038 73.18302917 C298.55015674 75.62024748 298.53804008 78.05695108 298.52539062 80.49414062 C298.53082258 82.26805187 298.53795122 84.0419586 298.54663086 85.81585693 C298.56473957 90.59691353 298.55784857 95.37762172 298.54511452 100.15868378 C298.53492186 105.18408585 298.54439748 110.20945992 298.55065918 115.23486328 C298.55791745 123.6709524 298.54839583 132.10690101 298.52929688 140.54296875 C298.50753168 150.26846134 298.51458434 159.99361839 298.5366025 169.71910286 C298.55480855 178.09914566 298.55728945 186.479088 298.54684782 194.85914421 C298.54064142 199.85107795 298.53969811 204.84285446 298.55299377 209.83477783 C298.56462774 214.52998658 298.55639005 219.22476662 298.53341675 223.9199295 C298.52816969 225.63345888 298.52957396 227.34702492 298.53846741 229.06053925 C298.60818791 243.86955534 296.88245791 256.39902069 286.16015625 267.41601562 C278.89014489 274.2668812 270.71021181 277.76011376 260.68603516 277.5324707 C259.12884262 277.50429008 259.12884262 277.50429008 257.54019165 277.47554016 C256.42864716 277.454608 255.31710266 277.43367584 254.171875 277.41210938 C250.57161866 277.3881257 246.97140315 277.37462791 243.37109375 277.36108398 C240.88224526 277.34044111 238.39348096 277.30012572 235.90527344 277.23999023 C223.11783607 276.24582161 223.11783607 276.24582161 211.23608398 279.67080688 C208.31193539 282.81688954 207.26079499 286.50663418 206.0078125 290.51757812 C196.58996387 304.44310444 182.89442061 317.05993941 169.6875 327.34570312 C165.60523236 330.65436319 161.8152259 334.26377502 157.99145508 337.86499023 C155.02253527 340.65852044 152.03464927 343.36677142 148.8828125 345.95507812 C117.64565778 373.20451097 102.118749 416.48968879 93.3828125 455.70117188 C92.98775513 457.4727063 92.98775513 457.4727063 92.5847168 459.2800293 C92.08681058 461.55169659 91.60315709 463.82654969 91.13598633 466.10473633 C89.68160856 472.85709116 88.32967133 477.0639324 82.6015625 481.29492188 C72.31313219 486.14473917 58.76263732 480.88648995 48.70654297 477.49316406 C36.31016792 473.01189803 24.98936494 467.1925651 15.0078125 458.51757812 C14.21246094 457.83308594 13.41710937 457.14859375 12.59765625 456.44335938 C3.04022952 447.57446081 -3.9004142 435.84103654 -7.9921875 423.51757812 C-8.31058594 422.56882812 -8.62898438 421.62007813 -8.95703125 420.64257812 C-14.09659168 401.69488991 -11.9546255 380.26226679 -6.9921875 361.51757812 C-6.82090332 360.8226123 -6.64961914 360.12764648 -6.47314453 359.41162109 C-4.19126075 350.18982949 -0.90263293 341.42699055 2.6953125 332.64257812 C3.06865723 331.7231543 3.44200195 330.80373047 3.82666016 329.85644531 C7.93639433 320.10276592 13.00311633 310.83299081 18.0078125 301.51757812 C17.24154541 301.52201935 16.47527832 301.52646057 15.68579102 301.53103638 C8.3915752 301.57145334 1.09741524 301.60173283 -6.19688416 301.62120247 C-9.94510759 301.63154911 -13.69323694 301.64553687 -17.44140625 301.66845703 C-21.07244768 301.69051679 -24.7033998 301.70221486 -28.33450317 301.70733261 C-30.36357575 301.71271525 -32.39261343 301.72827194 -34.42163086 301.74417114 C-59.06022506 301.74707865 -80.06789382 296.41069912 -97.9921875 278.51757812 C-98.64058594 277.88078125 -99.28898437 277.24398438 -99.95703125 276.58789062 C-109.89105808 266.11042687 -114.3169088 252.16834099 -114.22427368 237.91194153 C-113.73917711 230.81718885 -111.97322212 223.91534023 -110.4140625 216.99414062 C-110.01405942 215.17889512 -109.61506992 213.36342603 -109.21697998 211.54776001 C-108.32195461 207.47679318 -107.41924938 203.40762007 -106.51147461 199.33947754 C-105.01270612 192.61976448 -103.53182111 185.89617559 -102.05286312 179.17207861 C-99.10989948 165.79455595 -96.14598149 152.42176022 -93.16954803 139.05164719 C-92.84560786 137.59644513 -92.52167651 136.14124112 -92.19775391 134.68603516 C-91.95660064 133.60268226 -91.95660064 133.60268226 -91.71057558 132.49744344 C-90.39296887 126.57574147 -89.0818802 120.65260851 -87.77191091 114.72921312 C-86.4856381 108.91476865 -85.19403676 103.10152313 -83.89855266 97.28912413 C-83.13449687 93.86047587 -82.3725638 90.43139334 -81.61643219 87.00098801 C-68.62089833 28.08068002 -68.62089833 28.08068002 -42.18359375 9.54882812 C-28.61737989 1.04517216 -15.51143518 -0.0763805 0 0 Z " fill="currentColor" transform="translate(163.9921875,14.482421875)"/>
</svg>
