<?xml version="1.0" encoding="UTF-8"?>
<svg version="1.1" xmlns="http://www.w3.org/2000/svg" viewbox="0 0 512 512" width="512" height="512">
<path d="M0 0 C14.37788419 4.54282009 27.72916379 10.82292519 39.16430664 20.76123047 C39.9596582 21.44572266 40.75500977 22.13021484 41.57446289 22.83544922 C55.23967744 35.51620577 64.28385064 54.1529149 65.33276367 72.74755859 C65.8245036 86.69733569 65.49712437 100.18395784 62.16430664 113.76123047 C61.93880127 114.76017334 61.93880127 114.76017334 61.70874023 115.77929688 C59.39550559 125.93302776 55.85133447 135.54356969 51.97680664 145.19873047 C51.55592773 146.25688965 51.13504883 147.31504883 50.70141602 148.40527344 C46.52527648 158.53747101 41.36763454 168.12678065 36.16430664 177.76123047 C37.33583031 177.75456863 37.33583031 177.75456863 38.53102112 177.74777222 C45.95799396 177.70739046 53.3849122 177.67709311 60.8119669 177.65760612 C64.62859921 177.64725032 68.44513942 177.63324485 72.26171875 177.61035156 C75.95759398 177.58832571 79.65338166 177.57660052 83.34931755 177.57147598 C84.74643262 177.56783274 86.14354391 177.56072204 87.5406208 177.54977036 C111.37876932 177.3706504 132.82873897 181.81698332 150.43383789 198.96435547 C162.0629475 210.87629034 168.512753 224.51489686 168.39790344 241.36878967 C167.9092464 248.46537691 166.14240526 255.36929949 164.58227539 262.29248047 C164.18204146 264.10813807 163.7828442 265.92402442 163.38456726 267.7401123 C162.48971145 271.81015388 161.58741307 275.87846074 160.68035889 279.94580078 C159.1855818 286.65382632 157.71091555 293.36619071 156.23874307 300.07920837 C153.31006768 313.43171623 150.3591046 326.77918747 147.3934803 340.12353516 C145.59620944 348.21144379 143.80533953 356.30071171 142.02287894 364.39189768 C140.74355274 370.19659827 139.4568102 375.99962594 138.16476029 381.80150747 C137.40320952 385.2221048 136.6446422 388.64328943 135.89428139 392.06636047 C129.40489434 421.64569845 122.66735524 451.28621449 96.35571289 469.72998047 C82.78949903 478.23363644 69.68355432 479.35518909 54.17211914 479.27880859 C52.3011623 479.28424092 50.43020974 479.29136976 48.55926514 479.30004883 C43.5178842 479.31815309 38.47683379 479.31126837 33.43544769 479.29853249 C28.13558626 479.2883375 22.83575133 479.29781608 17.53588867 479.30407715 C8.63919037 479.31133474 -0.2573747 479.30181556 -9.15405273 479.28271484 C-19.40951911 479.26094981 -29.66466729 479.26800252 -39.92012596 479.29002047 C-48.75794873 479.30822842 -57.59567625 479.31070649 -66.43351173 479.30026579 C-71.69765048 479.29406044 -76.96164014 479.29311316 -82.22576904 479.30641174 C-87.17706799 479.31804849 -92.12796052 479.30980293 -97.079216 479.28683472 C-98.88585488 479.28158914 -100.69252854 479.2829893 -102.49915314 479.29188538 C-123.46495458 479.38552974 -141.50467825 473.90326542 -156.83569336 458.76123047 C-157.42296204 457.78889717 -157.42296204 457.78889717 -158.02209473 456.79692078 C-159.97221181 453.60800242 -161.46350966 451.18871073 -165.13612366 450.04457092 C-167.94106261 449.80560041 -170.65094405 449.80991266 -173.46459961 449.90185547 C-174.49068832 449.9004657 -175.51677704 449.89907593 -176.57395935 449.89764404 C-179.85016783 449.89795485 -183.1225834 449.95094169 -186.39819336 450.01123047 C-219.67847082 450.41270526 -219.67847082 450.41270526 -230.83959961 440.72607422 C-240.89952528 430.82364249 -244.20398733 420.00803861 -244.37100124 406.09577942 C-244.3780376 403.65856111 -244.36592094 401.22185751 -244.35327148 398.78466797 C-244.35870344 397.01075672 -244.36583208 395.23684999 -244.37451172 393.46295166 C-244.39262043 388.68189506 -244.38572943 383.90118687 -244.37299538 379.12012482 C-244.36280272 374.09472275 -244.37227834 369.06934867 -244.37854004 364.04394531 C-244.38579831 355.6078562 -244.37627669 347.17190758 -244.35717773 338.73583984 C-244.33541254 329.01034725 -244.3424652 319.2851902 -244.36448336 309.55970573 C-244.38268941 301.17966293 -244.38517031 292.79972059 -244.37472868 284.41966438 C-244.36852228 279.42773064 -244.36757897 274.43595413 -244.38087463 269.44403076 C-244.3925086 264.74882202 -244.38427091 260.05404198 -244.36129761 255.35887909 C-244.35605055 253.64534972 -244.35745482 251.93178368 -244.36634827 250.21826935 C-244.43606877 235.40925326 -242.71033877 222.87978791 -231.98803711 211.86279297 C-224.71802575 205.01192739 -216.53809267 201.51869484 -206.51391602 201.74633789 C-204.95672348 201.77451851 -204.95672348 201.77451851 -203.36807251 201.80326843 C-202.25652802 201.82420059 -201.14498352 201.84513275 -199.99975586 201.86669922 C-196.39949951 201.89068289 -192.79928401 201.90418068 -189.19897461 201.91772461 C-186.71012611 201.93836749 -184.22136182 201.97868287 -181.7331543 202.03881836 C-167.93600234 203.06937411 -167.93600234 203.06937411 -155.76806641 198.2097168 C-153.97639831 195.09022811 -152.86994353 192.1960977 -151.83569336 188.76123047 C-150.50647209 186.66773427 -149.01389603 184.97042491 -147.39819336 183.07373047 C-146.25737305 181.72988281 -146.25737305 181.72988281 -145.09350586 180.35888672 C-144.34842773 179.50166016 -143.60334961 178.64443359 -142.83569336 177.76123047 C-142.15249023 176.95556641 -141.46928711 176.14990234 -140.76538086 175.31982422 C-137.08305534 171.05265876 -133.25860981 167.20527674 -128.95678711 163.56591797 C-126.59605005 161.55733505 -124.31207901 159.47623979 -122.02319336 157.38623047 C-118.50558518 154.20363259 -114.90822285 151.17005085 -111.21069336 148.19873047 C-107.09964697 144.87515212 -103.34279343 141.38808838 -99.66772461 137.59326172 C-97.9406828 135.86621991 -96.15821892 134.31188343 -94.27319336 132.76123047 C-90.34632874 129.44462184 -87.08638451 125.73429743 -83.83569336 121.76123047 C-83.08416992 120.84728516 -82.33264648 119.93333984 -81.55834961 118.99169922 C-58.35730637 89.85294823 -46.4927431 55.5639039 -38.47729492 19.59985352 C-37.77095718 16.47481968 -37.04351781 13.35636903 -36.29272461 10.24169922 C-36.0591626 9.26612061 -35.82560059 8.29054199 -35.58496094 7.28540039 C-34.29872125 2.9522521 -32.18749862 0.69780544 -28.54663086 -1.82470703 C-19.87523509 -6.34782701 -8.80093139 -2.60151822 0 0 Z " fill="currentColor" transform="translate(293.835693359375,18.23876953125)"/>
</svg>
