<?xml version="1.0" encoding="UTF-8"?>
<svg version="1.1" xmlns="http://www.w3.org/2000/svg" width="512" height="512">
<path d="M0 0 C15.92606126 13.65090965 23.9499667 32.46466844 28.8125 52.4375 C29.10898437 53.65050781 29.40546875 54.86351563 29.7109375 56.11328125 C33.06382211 71.83200264 33.57769749 88.13544283 34.15063477 104.15527344 C35.08074919 129.61344207 39.63082768 149.12837702 54.82470703 169.9387207 C55.33630371 170.63956787 55.84790039 171.34041504 56.375 172.0625 C56.90851074 172.79106201 57.44202148 173.51962402 57.99169922 174.27026367 C66.3029796 185.72870253 74.01666457 197.61090211 81.82244873 209.4163208 C84.03817681 212.76680798 86.26178879 216.11144177 88.50463867 219.44384766 C102.91235769 240.86600875 118.3460993 264.64862475 122.8125 290.4375 C122.95945312 291.24574219 123.10640625 292.05398438 123.2578125 292.88671875 C123.57443481 295.0827786 123.72410873 297.22035232 123.8125 299.4375 C123.8640625 300.46101563 123.915625 301.48453125 123.96875 302.5390625 C124.22449975 312.32149059 123.00285086 321.7135376 121.56640625 331.37109375 C121.44185059 332.2307373 121.31729492 333.09038086 121.18896484 333.97607422 C120.94742549 335.55532179 120.67915883 337.13084415 120.37744141 338.69970703 C119.78613114 342.07151762 119.60320256 344.01398047 121.140625 347.125 C121.77484375 347.888125 122.4090625 348.65125 123.0625 349.4375 C128.61021193 356.22313112 130.12262701 362.80729496 130.75 371.375 C131.75678604 381.78163175 133.69588268 388.53930517 141.96875 395.4609375 C145.96387121 398.23776625 150.19613882 400.46431867 154.58325195 402.56079102 C159.48900753 404.96860616 162.54290592 407.5264642 164.74609375 412.578125 C166.38048977 419.41978275 165.21472216 424.16893602 161.796875 430.2421875 C154.5725721 440.16417313 139.66629445 445.6019174 129.1875 451.1875 C110.23694036 461.2925526 90.71427001 472.04871932 74.9375 486.8125 C66.31955373 494.87444974 57.26472865 497.83596844 45.5 497.8125 C44.66130371 497.81088867 43.82260742 497.80927734 42.95849609 497.80761719 C34.12398984 497.63281221 27.39342916 495.50576536 20.8125 489.4375 C19.64093115 487.2846403 18.49703057 485.11658831 17.375 482.9375 C14.65621745 478.50410374 12.10107685 476.18779327 7.0390625 474.76953125 C1.34560442 473.57383302 -4.40342944 472.99759805 -10.1875 472.4375 C-11.90175291 472.22305907 -13.6153456 472.0032523 -15.328125 471.77734375 C-43.54374395 468.25282929 -76.88990565 469.03103919 -104.1875 477.4375 C-105.74980459 479.10881392 -105.74980459 479.10881392 -107.0625 481.1875 C-111.48442608 487.39819518 -116.88463878 492.16303083 -124.51171875 493.99609375 C-144.64407926 497.31719848 -164.95889704 487.9836928 -183.53198242 481.35546875 C-196.97269374 476.57577669 -210.10946089 472.77985278 -224.1875 470.4375 C-225.34934814 470.23640625 -226.51119629 470.0353125 -227.70825195 469.828125 C-230.53243933 469.34938002 -233.35941782 468.89252537 -236.1875 468.4375 C-248.70967394 466.32032523 -259.83398713 463.68798594 -269.6875 455.3125 C-272.85778913 449.2361125 -271.83866143 443.28378455 -269.87109375 436.91796875 C-269.33734586 435.27647958 -268.79680009 433.63718758 -268.25 432 C-264.36489883 420.29471274 -263.38994826 411.52959393 -266.71240234 399.57373047 C-268.78812733 392.01177644 -269.20046709 385.52707519 -265.1875 378.4375 C-260.99565248 374.40044744 -257.25741124 372.41659582 -251.625 370.875 C-250.92753662 370.66866943 -250.23007324 370.46233887 -249.51147461 370.24975586 C-246.20821327 369.27528812 -242.89164683 368.35634805 -239.5703125 367.4453125 C-225.28963781 363.37952041 -217.97393803 356.45278452 -210.78125 343.7890625 C-208.76266248 340.8106564 -206.42708282 338.99723517 -203.41015625 337.08203125 C-201.83463106 335.34343914 -201.83463106 335.34343914 -202.47265625 332.203125 C-202.70855469 330.96046875 -202.94445312 329.7178125 -203.1875 328.4375 C-204.31231983 314.15228819 -200.36936891 303.85441889 -194.19042969 291.21630859 C-190.88413741 284.2021712 -188.42208114 276.87599726 -185.875 269.5625 C-175.1033919 238.72881811 -162.85931109 213.85331325 -142.9765625 187.94921875 C-142.27217041 187.02971436 -141.56777832 186.11020996 -140.84204102 185.1628418 C-139.49367985 183.40630594 -138.14036604 181.65355532 -136.78100586 179.90551758 C-126.82837247 167.39641879 -126.82837247 167.39641879 -122.1875 152.4375 C-122.0951709 151.62651855 -122.0028418 150.81553711 -121.90771484 149.97998047 C-120.43101363 133.71822185 -121.51895758 117.55524681 -122.625 101.3125 C-127.28958244 32.59664983 -127.28958244 32.59664983 -110.1875 10.4375 C-109.07375 8.890625 -109.07375 8.890625 -107.9375 7.3125 C-81.01258886 -20.83627073 -30.42480167 -22.41069776 0 0 Z M-48.6171875 59.625 C-54.6203727 66.55404958 -56.3717132 73.34904843 -56.4375 82.3125 C-56.458125 83.00730469 -56.47875 83.70210937 -56.5 84.41796875 C-56.53589351 89.18283259 -55.74637304 92.4164138 -53.1875 96.4375 C-50.24389958 98.05648023 -48.5520241 98.4375 -45.1875 98.4375 C-45.22230469 97.65246094 -45.25710938 96.86742187 -45.29296875 96.05859375 C-45.4914546 88.35545262 -45.34401334 83.07227294 -40.125 77.0625 C-36.50477271 74.02618034 -33.87327463 74.04701878 -29.1875 74.4375 C-25.17711902 76.28844507 -23.02741503 78.11017556 -21.3125 82.125 C-18.98101642 89.59129861 -19.73900524 95.54051049 -23.1875 102.4375 C-23.5175 103.4275 -23.8475 104.4175 -24.1875 105.4375 C-25.1775 105.9325 -25.1775 105.9325 -26.1875 106.4375 C-23.50723545 108.67930162 -23.50723545 108.67930162 -21.1875 108.25 C-16.02928555 106.15447538 -13.10313302 100.65767654 -10.875 95.8125 C-7.0256032 86.3407477 -7.63792014 78.25775979 -10.7890625 68.63671875 C-13.48567459 62.46765367 -17.62950075 58.14283283 -23.1875 54.4375 C-32.9050532 51.1983156 -41.014443 52.55267954 -48.6171875 59.625 Z M-108.734375 64.33984375 C-114.4379185 73.0796854 -116.06905082 82.70202145 -114.625 93 C-113.10584292 100.16467327 -109.71310227 106.13151532 -104.3125 111.0625 C-103.61125 111.51625 -102.91 111.97 -102.1875 112.4375 C-100.2075 110.7875 -98.2275 109.1375 -96.1875 107.4375 C-98.01444838 106.21953441 -99.84651368 105.00914111 -101.6875 103.8125 C-106.25718047 99.47130355 -107.34821927 94.49869141 -107.5625 88.3125 C-107.39936076 83.01047458 -105.98199318 79.23199318 -102.1875 75.4375 C-97.91183417 74.87278942 -95.93386128 74.87772904 -92.4375 77.5 C-87.10273896 84.46482691 -86.76911979 89.86845343 -87.1875 98.4375 C-86.65125 98.169375 -86.115 97.90125 -85.5625 97.625 C-82.77083333 96.22916667 -79.97916667 94.83333333 -77.1875 93.4375 C-76.60518341 80.40007857 -77.28898972 71.1431205 -86.40625 61.03125 C-89.31223708 58.4311563 -91.57379116 57.52011465 -95.4375 57 C-101.08052787 57.65835325 -105.12745595 59.90406199 -108.734375 64.33984375 Z M-93.62792969 121.07226562 C-96.6668399 123.73250137 -99.91255971 126.07954299 -103.1875 128.4375 C-102.805325 133.78795005 -100.79722152 136.67884382 -97.1875 140.4375 C-95.12758202 142.21191122 -93.10577206 143.87620943 -90.9375 145.5 C-90.08260986 146.14461182 -90.08260986 146.14461182 -89.21044922 146.80224609 C-79.71382866 154.02212881 -79.71382866 154.02212881 -68.1875 155.4375 C-64.81106416 154.24990687 -64.81106416 154.24990687 -61.375 152.375 C-60.39019653 151.863927 -60.39019653 151.863927 -59.38549805 151.3425293 C-52.93935391 147.94178479 -46.59089804 144.35314632 -40.25650024 140.7492981 C-38.5265813 139.76512248 -36.79394915 138.78572092 -35.0612793 137.80639648 C-33.98531494 137.18579346 -32.90935059 136.56519043 -31.80078125 135.92578125 C-30.83954346 135.37446533 -29.87830566 134.82314941 -28.88793945 134.25512695 C-25.91707934 132.25548374 -23.57339607 130.10424858 -21.1875 127.4375 C-20.86698503 125.30009537 -20.86698503 125.30009537 -22.1875 123.4375 C-29.19089503 116.20065847 -41.21460777 113.14608459 -50.4375 109.6875 C-51.99210937 109.09001953 -51.99210937 109.09001953 -53.578125 108.48046875 C-71.57462483 101.7088266 -80.3630479 109.18282852 -93.62792969 121.07226562 Z M-22.5625 143.1875 C-23.81595215 143.78280518 -23.81595215 143.78280518 -25.09472656 144.39013672 C-31.54035858 147.51010962 -37.74994304 150.96205515 -43.9375 154.5625 C-69.55389057 169.41503065 -69.55389057 169.41503065 -78.1875 167.4375 C-89.6620439 164.36631666 -98.4930709 156.56757478 -106.5078125 148.125 C-107.33925781 147.2896875 -107.33925781 147.2896875 -108.1875 146.4375 C-108.5175 146.4375 -108.8475 146.4375 -109.1875 146.4375 C-109.27386719 147.49066406 -109.36023438 148.54382813 -109.44921875 149.62890625 C-111.05227689 166.8975728 -116.22316959 182.17242546 -126.6875 196.25 C-129.53613103 200.19474479 -131.62282817 204.27483498 -133.53515625 208.73046875 C-133.83724503 209.4280127 -134.1393338 210.12555664 -134.45057678 210.84423828 C-137.39148077 217.73821595 -139.91330307 224.76308497 -142.387146 231.83508301 C-146.58685408 243.80159344 -151.10127635 255.29082073 -157.1875 266.4375 C-165.23865959 281.56450056 -168.61181071 296.98724019 -168.6875 314.0625 C-168.69378418 315.12815186 -168.70006836 316.19380371 -168.70654297 317.29174805 C-168.53166717 328.148479 -166.63774164 337.32692865 -159.1875 345.4375 C-158.30191406 346.40300781 -157.41632813 347.36851562 -156.50390625 348.36328125 C-149.39392154 355.86890036 -141.62659654 362.12875808 -133.3515625 368.296875 C-109.22618074 386.32145778 -109.22618074 386.32145778 -106.1875 395.4375 C-105.44518984 401.02338397 -105.56314966 406.14099929 -108.69921875 410.96484375 C-111.60748182 413.84257387 -115.37571071 415.12617933 -119.1875 416.4375 C-114.2042017 423.49717259 -108.49812587 429.80364371 -102.51318359 436.02075195 C-101.1875 437.4375 -101.1875 437.4375 -99.34375 439.77734375 C-96.09765248 442.27660361 -92.75740263 442.16124171 -88.8125 442.25 C-87.97960449 442.27932617 -87.14670898 442.30865234 -86.28857422 442.33886719 C-51.13112171 443.29100743 -18.31238391 438.47315735 8.39794922 413.98388672 C11.64327666 410.9023932 14.78736318 407.73669102 17.8125 404.4375 C18.34012939 403.91518799 18.86775879 403.39287598 19.41137695 402.85473633 C21.55785712 399.15159987 21.36457046 395.53016795 21.47265625 391.31640625 C21.50806015 390.42066391 21.54346405 389.52492157 21.5799408 388.60203552 C21.69163539 385.73500001 21.78463635 382.86778089 21.875 380 C22.96729798 347.80059632 22.96729798 347.80059632 26.19555664 343.66625977 C29.72453448 340.98449237 33.25101347 341.33293083 37.5 341.375 C38.67949219 341.38402344 39.85898437 341.39304687 41.07421875 341.40234375 C41.97785156 341.41394531 42.88148438 341.42554688 43.8125 341.4375 C58.69179994 309.220581 45.10018727 268.03092834 33.765625 237.1953125 C16.82883077 184.90388128 16.82883077 184.90388128 -11.1875 139.4375 C-15.53409271 139.4375 -18.68545836 141.33180191 -22.5625 143.1875 Z M-199.1875 353.4375 C-201.64506284 357.37918134 -203.81501511 361.47593429 -205.99414062 365.57617188 C-209.28572254 371.52903279 -211.99586206 375.15914312 -218.78198242 377.22875977 C-221.86351724 378.03161077 -224.95362436 378.74832172 -228.0625 379.4375 C-240.67392345 381.74965335 -240.67392345 381.74965335 -250.1875 389.4375 C-250.52211556 394.12211787 -250.0988007 398.10334976 -249.125 402.6875 C-247.16906412 413.04829077 -249.41642623 422.22215971 -252.45922852 432.11938477 C-254.31978982 438.17401469 -254.31978982 438.17401469 -254.1875 444.4375 C-250.73590808 449.12846663 -247.08628338 450.43147158 -241.5625 451.4375 C-240.79615234 451.59428223 -240.02980469 451.75106445 -239.24023438 451.91259766 C-234.38594932 452.88706027 -229.51002219 453.73508031 -224.6328125 454.5859375 C-207.61437397 457.57258115 -192.49863534 461.972195 -176.44042969 468.22436523 C-154.9945169 477.46242187 -154.9945169 477.46242187 -132.1875 478.4375 C-125.23589302 474.75589236 -119.64564043 466.8119213 -117.1875 459.4375 C-115.76537513 446.73163023 -121.5865132 438.07535254 -129.1875 428.4375 C-130.0842041 427.34574463 -130.0842041 427.34574463 -130.99902344 426.23193359 C-135.75116825 420.40992822 -139.96018946 414.43522305 -143.9375 408.0625 C-144.53385254 407.11713379 -145.13020508 406.17176758 -145.74462891 405.19775391 C-149.7703785 398.78708662 -153.68762301 392.31518143 -157.5625 385.8125 C-169.87481312 363.75369446 -169.87481312 363.75369446 -189.1875 348.4375 C-194.26871007 347.48275034 -196.05433231 349.59731147 -199.1875 353.4375 Z M40.16085815 358.69377136 C38.50017953 360.84140021 38.47015147 361.8383504 38.55126953 364.5246582 C38.5674231 365.34958771 38.58357666 366.17451721 38.60021973 367.02444458 C38.63160034 367.92001068 38.66298096 368.81557678 38.6953125 369.73828125 C38.73248913 371.67144527 38.76840838 373.60463379 38.80322266 375.5378418 C38.82604309 376.5526059 38.84886353 377.56737 38.87237549 378.61288452 C39.26362881 397.45996385 38.39855267 415.02792761 34.44506836 433.48242188 C31.53698585 447.06769037 29.5746645 459.18399063 36.6875 471.75 C40.66158211 476.77604503 44.38465338 479.48912919 50.8125 480.4375 C62.56704459 478.84573875 71.94476777 471.53428469 80.1875 463.5625 C94.72917934 449.54880901 113.12827627 440.94632697 130.9609375 431.78125 C131.7346167 431.38099609 132.5082959 430.98074219 133.30541992 430.56835938 C134.7150734 429.84196991 136.12900246 429.12378605 137.5480957 428.41601562 C141.77258424 426.2416545 144.6597448 423.90975047 147.8125 420.4375 C146.41032261 415.14038543 143.15493784 412.46638903 138.8125 409.4375 C136.97129335 408.4341758 135.11622044 407.45599303 133.25 406.5 C125.67061871 402.48188964 121.61965348 397.54262198 118.609375 389.5234375 C117.41949939 384.91558589 116.97834561 380.24666939 116.67089844 375.50244141 C116.25535742 370.36754166 114.98884179 367.51038988 111.8125 363.4375 C109.42831214 365.64689403 107.81406372 367.9191778 106.125 370.6875 C99.6016174 380.46463792 92.06703937 384.27787294 80.8125 387.4375 C72.21610532 389.09792831 64.9236642 388.89173717 56.8125 385.4375 C50.66003045 380.98677735 49.39883873 374.90422777 48.1875 367.7421875 C47.68841781 364.31099742 47.22868972 360.87963377 46.8125 357.4375 C43.23492908 357.09606295 43.23492908 357.09606295 40.16085815 358.69377136 Z " fill="#010002" transform="translate(309.1875,14.5625)"/>
</svg>
