<?xml version="1.0" encoding="UTF-8"?>
<svg version="1.1" xmlns="http://www.w3.org/2000/svg" viewbox="0 0 512 512" width="512" height="512">
<path d="M0 0 C22.25329762 -0.04676783 44.5065871 -0.08201228 66.75992393 -0.10362434 C77.09305847 -0.11392693 87.42616243 -0.1279678 97.75927734 -0.15087891 C106.7680007 -0.17084394 115.7767019 -0.18372383 124.78544676 -0.18817699 C129.55332598 -0.19077909 134.32114184 -0.19687396 139.0890007 -0.21146011 C143.58198224 -0.22509323 148.07487465 -0.2292111 152.56787491 -0.22621536 C154.211713 -0.22676297 155.85555426 -0.23070614 157.49937439 -0.23841095 C172.29545717 -0.30432669 185.03727994 1.05176844 197.3125 10.25 C208.46283478 21.6596449 211.6130484 33.32100318 211.5146637 48.97824097 C211.51999771 50.47165426 211.52706829 51.96506217 211.53571075 53.45845997 C211.55425204 57.53599571 211.54806272 61.61316613 211.53755772 65.69071651 C211.53054135 70.09847932 211.54658213 74.50616892 211.55955505 78.91390991 C211.58116001 87.53887681 211.58107709 96.16371158 211.57292951 104.78869663 C211.56662082 111.80158915 211.56777451 118.81444324 211.57420158 125.82733536 C211.57510324 126.82677234 211.57600489 127.82620932 211.57693387 128.85593227 C211.57878514 130.8865149 211.5806477 132.91709752 211.58252143 134.94768013 C211.59908788 153.97522594 211.59039072 173.00269754 211.57353585 192.03023888 C211.55884199 209.42224492 211.57346495 226.81407816 211.60230602 244.20606194 C211.63172816 262.08215797 211.64266394 279.95817432 211.63312382 297.83429348 C211.63210131 299.85787335 211.6311067 301.88145322 211.6301403 303.90503311 C211.62966391 304.90056691 211.62918752 305.8961007 211.6286967 306.92180219 C211.62653618 313.92149999 211.63631741 320.92112205 211.65091133 327.92080307 C211.66846348 336.45814219 211.66827607 344.99526111 211.64555968 353.53259169 C211.6344433 357.88468615 211.63119553 362.23639307 211.64986038 366.58847046 C211.66675683 370.57971352 211.66019167 374.57023381 211.63564359 378.56143083 C211.63078972 379.99806365 211.63419494 381.43475581 211.64713103 382.87133859 C211.75072762 395.28060013 209.198213 406.35833999 201.00390625 416.00390625 C190.94184971 426.0267345 178.63758442 430.13029956 164.63479614 430.12025452 C163.91504793 430.12110894 163.19529972 430.12196337 162.45374095 430.12284368 C160.05393309 430.1244843 157.6541959 430.11900043 155.25439453 430.11352539 C153.52939353 430.11324319 151.80439241 430.1134019 150.07939148 430.1139679 C145.4042655 430.11425457 140.72916522 430.10837873 136.0540452 430.10139394 C131.16533444 430.09513888 126.27662308 430.0945549 121.38790894 430.09336853 C112.13391082 430.09026157 102.87992453 430.08205672 93.62593162 430.07201904 C83.08911427 430.06083821 72.55229636 430.05534248 62.01547456 430.05032361 C40.34364311 430.03987359 18.6718223 430.02228642 -3 430 C-3.19743805 429.19125931 -3.3948761 428.38251862 -3.59829712 427.54927063 C-3.86186005 426.48025009 -4.12542297 425.41122955 -4.39697266 424.30981445 C-4.78594223 422.72545341 -4.78594223 422.72545341 -5.18276978 421.10908508 C-6.33907403 416.71002077 -7.85031275 412.46912104 -9.375 408.1875 C-15.39738788 390.68248976 -20.74622014 370.65550348 -20 352 C-14.80626212 350.94713823 -9.60932089 349.92177568 -4.3984375 348.95703125 C23.9128143 343.63884369 51.81025642 335.63826577 76.55859375 320.4609375 C79 319 79 319 82 318 C83.11935073 316.35369807 83.11935073 316.35369807 84 314 C84.26039063 313.40703125 84.52078125 312.8140625 84.7890625 312.203125 C87.38439943 305.94520978 87.93037524 300.89689729 85.5 294.4375 C83.15387109 289.51819745 79.67124017 286.6857233 75 284 C69.05915416 282.01971805 64.29644497 282.0262871 58.453125 284.50390625 C55.74778216 285.85692389 53.08375478 287.2852577 50.4140625 288.70703125 C34.78723591 296.99142852 17.93162604 302.74947183 0.75 306.75 C-0.14887939 306.96100342 -1.04775879 307.17200684 -1.97387695 307.3894043 C-8.29400655 308.79947075 -14.54226453 309.55538942 -21 310 C-18.62236921 272.34211461 -9.9761738 236.94043451 4 202 C-18.77 201.67 -41.54 201.34 -65 201 C-58.19705513 149.97791349 -40.45841361 100.21317624 -21.8125 52.4375 C-21.51881531 51.68321716 -21.22513062 50.92893433 -20.92254639 50.15179443 C-16.41330474 38.62471789 -11.57541747 27.23776025 -6.7331543 15.84790039 C-6.0780702 14.30563209 -5.42304807 12.76333746 -4.76808929 11.22101593 C-3.17943979 7.48037372 -1.58995449 3.74008771 0 0 Z M52.625 105.375 C48.26317892 112.42101866 48.66014148 119.74381614 48.68432617 127.73999023 C48.68748639 129.92807852 48.66398992 132.11481275 48.63867188 134.30273438 C48.63639834 135.71093582 48.63569564 137.11914085 48.63671875 138.52734375 C48.63373779 139.79312256 48.63075684 141.05890137 48.62768555 142.36303711 C49.2572523 148.51297538 51.65296885 153.52876796 56 158 C61.04804554 161.48555525 66.05576898 161.8478301 72 161 C77.68763219 158.9926004 81.42906037 155.16133034 84.08447266 149.81762695 C85.22500146 146.3075355 85.32420517 143.00754181 85.3359375 139.35546875 C85.3425943 138.62685135 85.3492511 137.89823395 85.35610962 137.14753723 C85.36620182 135.61034658 85.3709277 134.07311242 85.37060547 132.53588867 C85.37496759 130.20481688 85.41128857 127.87565783 85.44921875 125.54492188 C85.54448151 114.6808469 85.54448151 114.6808469 81 105 C79.30690186 103.14487186 79.30690186 103.14487186 77.4375 102.0625 C76.85871094 101.68222656 76.27992188 101.30195313 75.68359375 100.91015625 C67.42620761 96.44618648 58.90879715 99.09120285 52.625 105.375 Z " fill="currentColor" transform="translate(301,41)"/>
<path d="M0 0 C0.89211184 -0.00085442 1.78422367 -0.00170885 2.7033692 -0.00258917 C5.68048643 -0.00423093 8.65754681 0.00125602 11.63465881 0.00672913 C13.77359516 0.0070113 15.9125316 0.00685266 18.0514679 0.00628662 C23.85046371 0.00599985 29.64943882 0.01187727 35.44842982 0.01886058 C41.5116088 0.02511401 47.57478826 0.02569949 53.63796997 0.02688599 C65.11605643 0.02999343 76.59413335 0.03819892 88.07221562 0.04823548 C101.14105185 0.05941482 114.20988854 0.06491166 127.27872837 0.06993091 C154.15917726 0.08038201 181.0396177 0.0979701 207.9200592 0.12025452 C207.45268845 1.53857574 206.98389145 2.95642703 206.51451111 4.37408447 C206.25360624 5.16370166 205.99270138 5.95331884 205.7238903 6.76686382 C204.53658355 10.24296306 203.18067965 13.6419419 201.8028717 17.04603577 C201.19624774 18.56071027 200.58998079 20.0755278 199.98402405 21.59046936 C199.66826416 22.37814697 199.35250427 23.16582458 199.0271759 23.97737122 C170.69082593 94.82088766 146.46938471 166.27370965 144.9200592 243.12025452 C163.0700592 243.12025452 181.2200592 243.12025452 199.9200592 243.12025452 C198.82312893 249.70183616 197.71024202 256.23342803 196.47425842 262.78163147 C194.23826481 274.83756721 192.94034681 286.87706312 191.95936584 299.08827209 C191.79682312 301.00095886 191.79682312 301.00095886 191.6309967 302.95228577 C191.54124573 304.09415344 191.45149475 305.23602112 191.35902405 306.41249084 C190.9200592 309.12025452 190.9200592 309.12025452 188.9200592 311.12025452 C187.08265686 311.15126038 187.08265686 311.15126038 184.8341217 310.83509827 C183.99615051 310.71940491 183.15817932 310.60371155 182.29481506 310.48451233 C181.38739563 310.34368225 180.4799762 310.20285217 179.5450592 310.05775452 C178.60476868 309.91563538 177.66447815 309.77351624 176.69569397 309.62709045 C154.82289631 306.15260542 133.82677728 299.62905556 114.16053772 289.40858459 C107.45855071 286.02017757 101.12401351 283.88378814 93.7325592 286.24525452 C88.69704418 288.46208483 85.08357523 291.27467737 82.1075592 295.99525452 C79.29902467 303.38613487 79.81743401 308.96222947 82.9200592 316.12025452 C86.87494224 321.55821869 93.03285091 324.16622438 98.9200592 327.12025452 C99.50771057 327.42334534 100.09536194 327.72643616 100.70082092 328.03871155 C128.76975217 342.44298699 159.71030364 349.13286157 190.9200592 352.12025452 C191.00981018 352.86259338 191.09956116 353.60493225 191.19203186 354.36976624 C193.96178845 376.83480321 197.78084119 398.8360247 205.09144592 420.33753967 C206.2714033 423.82669503 206.9200592 426.39046274 206.9200592 430.12025452 C178.98169484 430.19041303 151.04334373 430.24327624 123.10490894 430.27569103 C110.13188541 430.29114349 97.15891669 430.31220204 84.18592834 430.34657288 C72.8753945 430.37652484 61.56490036 430.3958413 50.25432795 430.40252 C44.26845837 430.40642242 38.28270237 430.41555993 32.29686928 430.43744469 C26.65559442 430.45790139 21.01447928 430.46406979 15.37317085 430.45957756 C13.30971151 430.46039866 11.24624648 430.46630926 9.18281937 430.47787094 C-6.07669142 430.55913331 -19.14311499 430.20770466 -32.0799408 421.12025452 C-32.9668158 420.54275452 -33.8536908 419.96525452 -34.7674408 419.37025452 C-43.22327751 411.14295393 -48.14775936 400.96300678 -48.58609867 389.1495533 C-48.60924642 386.47836456 -48.61138625 383.81271377 -48.59460449 381.14201355 C-48.59993851 379.64860026 -48.60700909 378.15519235 -48.61565155 376.66179454 C-48.63419284 372.58425881 -48.62800352 368.50708838 -48.61749852 364.42953801 C-48.61048214 360.0217752 -48.62652293 355.6140856 -48.63949585 351.2063446 C-48.66110081 342.58137771 -48.66101788 333.95654293 -48.6528703 325.33155788 C-48.64656162 318.31866537 -48.6477153 311.30581128 -48.65414238 304.29291916 C-48.65549486 302.79376369 -48.65549486 302.79376369 -48.65687467 301.26432224 C-48.65872594 299.23373961 -48.6605885 297.20315699 -48.66246223 295.17257439 C-48.67902868 276.14502857 -48.67033152 257.11755698 -48.65347665 238.09001563 C-48.63878278 220.69800959 -48.65340575 203.30617636 -48.68224681 185.91419257 C-48.71166896 168.03809655 -48.72260474 150.1620802 -48.71306461 132.28596103 C-48.7120421 130.26238117 -48.71104749 128.23880129 -48.7100811 126.21522141 C-48.70960471 125.21968761 -48.70912832 124.22415382 -48.70863749 123.19845233 C-48.70647698 116.19875452 -48.7162582 109.19913246 -48.73085213 102.19945145 C-48.74840428 93.66211233 -48.74821686 85.12499341 -48.72550047 76.58766283 C-48.7143841 72.23556837 -48.71113632 67.88386144 -48.72980118 63.53178406 C-48.74669763 59.54054099 -48.74013246 55.55002071 -48.71558439 51.55882369 C-48.71073052 50.12219087 -48.71413574 48.68549871 -48.72707183 47.24891593 C-48.83070932 34.83475513 -46.27287025 23.7719516 -38.0877533 14.11634827 C-27.26263071 3.35440733 -14.87068938 -0.05257137 0 0 Z M85.5763092 105.79994202 C80.99063006 113.1697835 81.73722363 121.64592429 81.7325592 129.99525452 C81.72031311 131.14123108 81.70806702 132.28720764 81.69544983 133.46791077 C81.68007825 142.37317719 81.86101786 149.88667415 88.2169342 156.64369202 C91.90317617 159.83956234 95.59588372 160.95172309 100.3575592 161.55775452 C106.09952083 160.85260133 110.30511187 158.82019908 114.2950592 154.62025452 C114.8313092 153.79525452 115.3675592 152.97025452 115.9200592 152.12025452 C116.27737122 151.57481995 116.63468323 151.02938538 117.00282288 150.46742249 C118.33870772 147.04895113 118.22524912 143.6837403 118.22084045 140.06556702 C118.22726814 138.89681534 118.22726814 138.89681534 118.23382568 137.70445251 C118.23955897 136.0587206 118.24007662 134.41296334 118.23573303 132.76722717 C118.23257872 130.26076044 118.2560237 127.7554812 118.28138733 125.24916077 C118.28366114 123.64629766 118.28436344 122.04343141 118.28334045 120.44056702 C118.2925502 119.69662689 118.30175995 118.95268677 118.31124878 118.186203 C118.26161062 112.54896161 117.06566382 108.39966076 113.16615295 104.25697327 C112.27089905 103.53960999 112.27089905 103.53960999 111.3575592 102.80775452 C110.45843811 102.0710553 110.45843811 102.0710553 109.54115295 101.31947327 C101.94342857 95.698988 91.13207676 98.85523258 85.5763092 105.79994202 Z " fill="currentColor" transform="translate(48.07994079589844,40.87974548339844)"/>
</svg>
