<?xml version="1.0" encoding="UTF-8"?>
<svg version="1.1" xmlns="http://www.w3.org/2000/svg" fill="currentColor" viewBox="0 0 512 512">
<path d="M0 0 C0.88026855 0.21495117 1.76053711 0.42990234 2.66748047 0.65136719 C51.81761817 12.9549938 99.7875988 40.40779382 135.42871094 76.44018555 C137.20865132 78.20712761 139.07025217 79.83630837 141 81.4375 C144.35510997 84.3362636 147.24898599 87.41856451 150.109375 90.80078125 C152.21327602 93.2480876 154.41714264 95.58363917 156.625 97.9375 C163.26525748 105.22460143 169.14758386 113.07485315 175 121 C175.45890625 121.61762207 175.9178125 122.23524414 176.390625 122.87158203 C185.39425345 135.07190537 189.48021323 144.74601309 188 160 C183.72147451 180.2592432 160.16358946 203.31290937 145.66015625 217.33984375 C143.78154483 219.1627788 143.78154483 219.1627788 141.5 222.0625 C138.94782954 225.06130029 136.26198939 227.49630586 133.26953125 230.0390625 C130.8026719 232.17049692 128.44048199 234.39496529 126.0625 236.625 C109.78460618 251.4414807 91.15857913 264.20185224 72 275 C71.24154785 275.42780762 70.4830957 275.85561523 69.70166016 276.29638672 C5.93725711 311.84622556 -70.93197538 322.09528126 -141.46704102 302.50561523 C-173.61424335 293.17172174 -204.66830142 279.50319213 -232 260 C-232.69270996 259.50806152 -233.38541992 259.01612305 -234.09912109 258.50927734 C-247.34390675 249.0630594 -259.97684071 239.13740699 -271.42871094 227.55981445 C-273.20865132 225.79287239 -275.07025217 224.16369163 -277 222.5625 C-280.35510997 219.6637364 -283.24898599 216.58143549 -286.109375 213.19921875 C-288.21327602 210.7519124 -290.41714264 208.41636083 -292.625 206.0625 C-302.7414138 194.96062124 -311.88902494 182.63843744 -320 170 C-320.7115625 168.92685547 -320.7115625 168.92685547 -321.4375 167.83203125 C-325.52228435 160.499276 -325.20262846 151.09565483 -324 143 C-318.64317832 124.26146546 -300.86876581 107.17816559 -288 93 C-287.11368896 92.02111816 -287.11368896 92.02111816 -286.20947266 91.02246094 C-274.23089363 77.84950892 -274.23089363 77.84950892 -267.94140625 72.63671875 C-265.62088155 70.68038102 -263.45329432 68.58751069 -261.25 66.5 C-191.5786547 3.02166317 -91.29274105 -22.47354323 0 0 Z M-141 73 C-141.74765625 73.64453125 -142.4953125 74.2890625 -143.265625 74.953125 C-161.56986725 92.06684743 -173.41195314 117.97683889 -175.20727539 142.87451172 C-175.30252019 145.81541237 -175.32926157 148.74512581 -175.3125 151.6875 C-175.30686035 152.73550781 -175.3012207 153.78351563 -175.29541016 154.86328125 C-174.8832276 181.43885358 -164.21118096 205.07546439 -147 225 C-146.03320312 226.12148438 -146.03320312 226.12148438 -145.046875 227.265625 C-131.15388943 242.12507913 -111.62525422 252.26377198 -92 257 C-91.13632813 257.22300781 -90.27265625 257.44601562 -89.3828125 257.67578125 C-61.83326915 263.54503179 -32.51996344 256.99218449 -9 242 C-4.1025511 238.61453222 0.49695488 234.88981334 5 231 C6.12148438 230.03320312 6.12148438 230.03320312 7.265625 229.046875 C22.12507913 215.15388943 32.26377198 195.62525422 37 176 C37.22300781 175.13632812 37.44601562 174.27265625 37.67578125 173.3828125 C40.9698867 157.92068488 40.27344538 140.17332631 36 125 C35.67128906 123.79730469 35.34257812 122.59460938 35.00390625 121.35546875 C30.14730357 105.30683361 21.93045871 91.61837063 11 79 C10.03513672 77.88238281 10.03513672 77.88238281 9.05078125 76.7421875 C-4.82588446 61.87218129 -24.38181168 51.73452278 -44 47 C-45.29550781 46.66548828 -45.29550781 46.66548828 -46.6171875 46.32421875 C-80.82945871 39.03551749 -115.12340299 50.64731874 -141 73 Z " transform="translate(324,104)"/>
<path d="M0 0 C14.55415269 11.69894866 24.9241276 28.03559786 27.31103516 46.73632812 C28.88874411 66.55816746 25.42747554 85.26779075 12.73291016 101.06054688 C0.6144045 115.25757446 -16.09955409 125.41590264 -34.95263672 126.91650391 C-54.82489272 128.0262636 -73.17929781 123.9667329 -88.59570312 110.80737305 C-102.72705479 98.03506525 -111.93468214 81.20582679 -113.00537109 62.03320312 C-113.68331523 42.23110614 -108.87494748 24.23362363 -95.37646484 9.29882812 C-70.5153812 -16.81239814 -29.25349605 -21.88726446 0 0 Z " transform="translate(298.68896484375,199.263671875)"/>
</svg>
