<svg width="78" height="78" viewBox="0 0 78 78" fill="none" xmlns="http://www.w3.org/2000/svg">
<path fill-rule="evenodd" clip-rule="evenodd" d="M59.3684 51.2203C58.2402 50.0966 56.3655 50.1382 55.2374 51.2619L48.6414 44.6929C52.706 39.7712 54.9329 33.5653 54.8882 27.1426C54.8379 19.9157 51.9156 13.0028 46.7607 7.91623C41.6058 2.82964 34.6378 -0.0166274 27.3811 7.30789e-05C20.1243 0.0167734 13.1696 2.89508 8.03829 8.00534C2.90699 13.1156 0.0168425 20.0418 7.33796e-05 27.2688C-0.0166958 34.4958 2.84129 41.4353 7.94881 46.569C13.0563 51.7028 19.9977 54.6131 27.2543 54.6633C33.5499 54.7067 39.6382 52.5943 44.5219 48.7279L51.1208 55.2998C49.9925 56.4233 49.9818 58.3211 51.1101 59.4448L68.7644 77.0268C69.8925 78.1503 71.7217 78.1503 72.8499 77.0268L77.0228 72.871C78.1509 71.7474 78.1509 69.9257 77.0228 68.8022L59.3684 51.2203ZM42.6228 42.7303C46.6361 38.6588 49.1503 32.8877 49.1106 27.1824C49.0708 21.477 46.7639 16.0194 42.6941 12.0038C38.6244 7.98803 33.1234 5.74098 27.3944 5.75416C21.6654 5.76733 16.1749 8.03969 12.1238 12.0741C8.07278 16.1086 5.79107 21.5766 5.77784 27.2821C5.7646 32.9876 8.02091 38.4661 12.0532 42.5191C16.0853 46.5722 21.5654 48.8697 27.2942 48.9094C33.0231 48.9488 38.5346 46.7271 42.6228 42.7303Z" fill="black"/>
</svg>