<svg width="512" height="512" viewBox="0 0 512 512" fill="none" xmlns="http://www.w3.org/2000/svg">
<path fill-rule="evenodd" clip-rule="evenodd" d="M512 210.665C512 226.541 504.551 231.999 493.625 235.968C479.416 312.407 465.014 388.815 450.421 465.185C447.275 477.588 439.495 485.361 427.08 488.504C313.192 489.165 199.304 489.165 85.4159 488.504C73.0007 485.361 65.2206 477.588 62.0754 465.185L18.8708 235.968C9.93207 232.991 3.23072e-10 226.541 0 210.665C-3.12976e-10 195.285 16.131 187.886 21.354 187.843L139.049 186.85L219.003 32.5507C225.68 22.1636 235.116 18.3597 247.309 21.1395C250.566 22.1047 253.546 23.5932 256.248 25.6047C258.731 23.6202 261.214 22.1317 264.691 21.1395C273.629 18.1627 288.031 20.6435 293.494 33.0468L373.447 186.85L490.149 187.843C499.585 187.921 512 197.766 512 210.665ZM257.241 67.2805C256.745 66.3207 254.758 66.2882 254.262 67.2805L193.676 186.354H318.82L257.241 67.2805ZM130.11 234.976L34.7621 235.968L48.6671 305.924L136.07 306.42L130.11 234.976ZM248.302 234.976H146.002L152.954 305.924L248.302 306.42V234.976ZM366.494 234.976H264.194V306.42L359.542 305.924L366.494 234.976ZM477.734 235.472L382.386 234.976L376.427 306.42L463.829 305.924C463.829 305.924 475.48 246.894 477.734 235.472ZM138.056 322.297H51.6467L64.5584 393.741H145.008L138.056 322.297ZM248.302 322.297H153.947L160.9 393.741H248.302V322.297ZM358.549 322.297H264.194V393.741H351.596L358.549 322.297ZM460.849 322.297H374.44L367.488 393.741H447.938L460.849 322.297ZM146.995 409.617L67.5381 410.609C67.5381 410.609 74.655 445.501 77.9668 463.2C79.7876 467.666 82.9328 470.808 87.4023 472.627C109.25 473.123 152.954 473.123 152.954 473.123L146.995 409.617ZM248.302 409.617H162.886L168.846 473.123H248.302V409.617ZM349.61 409.617H264.194V473.123H343.651L349.61 409.617ZM444.958 410.113L365.501 409.617L359.542 473.123C359.542 473.123 403.246 473.123 425.094 472.627C428.828 471.177 431.642 468.697 433.536 465.185C437.603 446.85 444.958 410.113 444.958 410.113Z" fill="black"/>
</svg>
